<svg width="70" height="70" viewBox="0 0 100 100" fill="none" xmlns="http://www.w3.org/2000/svg">
<path d="M50.5 27.5C74.1786 27.5 93 22.4375 93 16.25C93 10.0625 74.1786 5 50.5 5C26.8214 5 8 10.0625 8 16.25C8 22.4375 26.8214 27.5 50.5 27.5ZM50.5 78.125C26.8214 78.125 8 73.0625 8 66.875V83.75C8 89.9375 26.8214 95 50.5 95C74.1786 95 93 89.9375 93 83.75V66.875C93 73.0625 74.1786 78.125 50.5 78.125ZM50.5 55.625C26.8214 55.625 8 50.5625 8 44.375V61.25C8 67.4375 26.8214 72.5 50.5 72.5C74.1786 72.5 93 67.4375 93 61.25V44.375C93 50.5625 74.1786 55.625 50.5 55.625ZM50.5 33.125C26.8214 33.125 8 28.0625 8 21.875V38.75C8 44.9375 26.8214 50 50.5 50C74.1786 50 93 44.9375 93 38.75V21.875C93 28.0625 74.1786 33.125 50.5 33.125Z" fill="#0049A6"/>
</svg>
