<svg width="550" height="275" viewBox="0 0 550 275" fill="none" xmlns="http://www.w3.org/2000/svg">
<g clip-path="url(#clip0)">
<rect width="550" height="275" fill="white"/>
<g clip-path="url(#clip1)">
<path d="M332.603 179.387C354.419 173.633 367.44 151.283 361.687 129.467C355.933 107.651 333.583 94.6297 311.767 100.383C289.951 106.137 276.93 128.487 282.683 150.303C288.437 172.119 310.787 185.14 332.603 179.387Z" fill="#2F89FC"/>
<path d="M232.295 247.593L222.964 247.663C153.711 248.389 109.113 230.328 100.644 198.217C92.1702 166.085 122.089 128.395 182.671 94.8794L190.828 90.3611L195.567 98.366C208.104 119.29 222.334 139.15 238.116 157.749L241.036 161.192L240.193 165.627C235.634 189.623 233.027 213.932 232.475 238.315L232.295 247.593V247.593ZM183.954 116.08C138.292 142.986 113.588 172.176 119.167 193.332C124.735 214.444 160.605 227.683 213.614 228.543C214.59 207.741 216.937 187.027 220.588 166.585C207.262 150.587 195.023 133.714 183.954 116.08V116.08ZM453.482 189.26L448.76 181.227C436.204 160.304 421.965 140.438 406.183 121.827L403.269 118.407L404.105 113.949C408.676 89.9979 411.233 65.6783 411.851 41.2782L412.009 32.0056L421.334 31.9132C490.61 31.182 535.18 49.2268 543.66 81.3813C552.134 113.514 522.238 151.198 461.634 184.719L453.482 189.26V189.26ZM423.672 113.026C437.579 129.855 449.92 146.766 460.339 163.475C506.029 136.585 530.727 107.372 525.16 86.2604C519.58 65.1044 483.721 51.9102 430.679 51.0113C429.71 71.8143 427.37 92.5307 423.672 113.026V113.026Z" fill="#2F89FC"/>
<path d="M183.796 116.026L179.086 108.037C143.835 48.5043 137.21 0.948898 160.923 -22.4885C184.08 -45.5191 232.984 -38.4161 291.496 -3.31427L299.485 1.49011L294.899 9.58738C283.028 30.912 272.908 53.1644 264.636 76.1257L263.08 80.3702L258.836 81.8682C235.769 89.9304 213.397 99.8597 191.943 111.557L183.796 116.026V116.026ZM186.537 -15.563C181.58 -14.2556 177.484 -12.0157 174.349 -8.91657C158.809 6.47175 165.272 44.0814 190.971 90.3697C209.539 80.81 228.611 72.4429 248.199 65.407C255.465 45.8824 263.989 26.8495 273.717 8.42798C237.487 -12.0058 206.077 -20.7164 186.537 -15.563V-15.563ZM462.632 313.616C436.341 320.55 397.342 309.628 352.799 282.889L344.838 278.101L349.408 270.032C361.274 248.679 371.396 226.404 379.676 203.422L381.221 199.227L385.403 197.674C408.487 189.643 430.871 179.726 452.33 168.024L460.487 163.505L465.226 171.51C500.376 231.022 507.041 278.638 483.372 302.064C477.609 307.691 470.45 311.679 462.632 313.616V313.616ZM370.6 271.141C406.808 291.581 438.246 300.308 457.764 295.16C462.743 293.847 466.833 291.585 469.952 288.514C485.508 273.098 479.05 235.416 453.307 189.139C434.767 198.715 415.679 207.11 396.046 214.158C388.836 233.695 380.336 252.732 370.6 271.141V271.141Z" fill="#2F89FC"/>
<path d="M430.786 50.887L421.467 51.0015C397.026 51.3888 372.659 53.7858 348.611 58.1683L344.219 58.9243L340.795 55.993C322.278 40.0851 302.491 25.7192 281.631 13.039L273.67 8.2509L278.241 0.181609C311.816 -59.1827 350.834 -89.4732 382.375 -80.892C414.546 -72.169 432.258 -27.5376 430.967 41.6086L430.786 50.887ZM349.753 38.6244C371.36 34.9376 392.2 32.8262 411.892 32.1063C411.444 -20.8412 398.519 -56.7467 377.383 -62.4864C356.364 -68.2333 326.302 -43.0265 299.52 1.62286C317.063 12.8547 333.853 25.1842 349.753 38.6244ZM285.66 360.289C277.902 362.454 269.709 362.515 261.92 360.467C229.733 351.772 212.032 307.091 213.323 237.944L213.431 228.661L222.755 228.569C245.507 228.32 270.007 225.906 295.6 221.358L300.004 220.646L303.439 223.527C321.929 239.432 341.727 253.833 362.597 266.554L370.575 271.314L365.988 279.411C340.452 324.655 311.906 353.367 285.66 360.289V360.289ZM232.391 247.425C232.862 300.366 245.804 336.338 266.918 342.084C287.918 347.67 317.899 322.603 344.797 277.946C327.253 266.713 310.452 254.359 294.498 240.962C273.961 244.48 253.213 246.639 232.391 247.425V247.425Z" fill="#2F89FC"/>
<path d="M345.929 229.908C330.726 233.917 314.955 237.39 298.943 240.217L294.507 240.984L291.06 238.059C278.875 227.684 267.117 216.817 255.818 205.483C244.567 194.098 233.779 182.264 223.48 170.011L220.588 166.584L221.403 162.133C224.331 146.402 227.86 130.796 232.047 115.348C236.248 100.134 241.156 84.7327 246.635 69.6072L248.202 65.4069L252.434 63.8647C282.664 53.1229 313.739 44.9275 345.335 39.3641L349.739 38.6523L353.173 41.5336C377.577 62.2874 400.204 85.0433 420.82 109.564L423.701 113.041L422.897 117.442C417.098 148.95 408.634 179.909 397.599 209.985L396.044 214.23L391.85 215.738C376.559 221.12 361.11 225.904 345.929 229.908V229.908ZM300.067 220.606C327.94 215.457 354.452 208.465 381.217 199.205C390.575 172.86 397.946 145.851 403.27 118.406C385.139 97.1221 365.404 77.2589 344.239 58.9907C316.68 64.0338 289.55 71.1887 263.089 80.3922C253.67 106.718 246.298 133.731 241.036 161.191C259.224 182.422 278.955 202.281 300.067 220.606V220.606Z" fill="#2F89FC"/>
</g>
</g>
<defs>
<clipPath id="clip0">
<rect width="550" height="275" fill="white"/>
</clipPath>
<clipPath id="clip1">
<rect width="549.274" height="549.274" fill="white" transform="translate(-9 -38.9297) rotate(-14.7742)"/>
</clipPath>
</defs>
</svg>
