<svg width="301" height="162" viewBox="0 0 301 162" fill="none" xmlns="http://www.w3.org/2000/svg">
<path d="M1 161H300" stroke="#CCCCCC"/>
<path d="M1 121H300" stroke="#CCCCCC"/>
<path d="M1 81H300" stroke="#CCCCCC"/>
<path d="M1 41H300" stroke="#CCCCCC"/>
<path d="M1 1H300" stroke="#CCCCCC"/>
<path d="M1 1V161" stroke="#CCCCCC"/>
<path d="M43.7144 1V161" stroke="#CCCCCC"/>
<path d="M86.4285 1V161" stroke="#CCCCCC"/>
<path d="M129.143 1V161" stroke="#CCCCCC"/>
<path d="M171.857 1V161" stroke="#CCCCCC"/>
<path d="M214.571 1V161" stroke="#CCCCCC"/>
<path d="M257.286 1V161" stroke="#CCCCCC"/>
<path d="M300 1V161" stroke="#CCCCCC"/>
<path d="M4 121L38.5 86.5L86.5 38.44H129.5L171.5 29.5L215.5 26L257 22.76L299.5 1.5" stroke="#2F89FC"/>
<path d="M4 124C5.65685 124 7 122.657 7 121C7 119.343 5.65685 118 4 118C2.34315 118 1 119.343 1 121C1 122.657 2.34315 124 4 124Z" fill="white" stroke="#2F89FC"/>
<path d="M86 42C87.6569 42 89 40.6569 89 39C89 37.3431 87.6569 36 86 36C84.3431 36 83 37.3431 83 39C83 40.6569 84.3431 42 86 42Z" fill="white" stroke="#2F89FC"/>
<path d="M129 41C130.657 41 132 39.6569 132 38C132 36.3431 130.657 35 129 35C127.343 35 126 36.3431 126 38C126 39.6569 127.343 41 129 41Z" fill="white" stroke="#2F89FC"/>
<path d="M172 32C173.657 32 175 30.6569 175 29C175 27.3431 173.657 26 172 26C170.343 26 169 27.3431 169 29C169 30.6569 170.343 32 172 32Z" fill="white" stroke="#2F89FC"/>
<path d="M215 29C216.657 29 218 27.6569 218 26C218 24.3431 216.657 23 215 23C213.343 23 212 24.3431 212 26C212 27.6569 213.343 29 215 29Z" fill="white" stroke="#2F89FC"/>
<path d="M257 26C258.657 26 260 24.6569 260 23C260 21.3431 258.657 20 257 20C255.343 20 254 21.3431 254 23C254 24.6569 255.343 26 257 26Z" fill="white" stroke="#2F89FC"/>
</svg>
