<svg width="70" height="70" viewBox="0 0 100 100" fill="none" xmlns="http://www.w3.org/2000/svg">
<g clip-path="url(#clip0)">
<path d="M39.9024 0.976571C20.4883 4.76563 4.84381 20.3711 1.01568 39.7266C-6.21088 76.25 26.7383 103.477 51.5626 99.6289C59.6094 98.3789 63.5547 88.9648 59.8633 81.7188C55.3516 72.8516 61.7969 62.5 71.7579 62.5H87.3243C94.3165 62.5 99.9805 56.7188 100 49.7461C99.9024 18.9648 71.8946 -5.2539 39.9024 0.976571ZM18.7501 62.5C15.293 62.5 12.5001 59.707 12.5001 56.25C12.5001 52.793 15.293 50 18.7501 50C22.2071 50 25.0001 52.793 25.0001 56.25C25.0001 59.707 22.2071 62.5 18.7501 62.5ZM25.0001 37.5C21.543 37.5 18.7501 34.707 18.7501 31.25C18.7501 27.793 21.543 25 25.0001 25C28.4571 25 31.2501 27.793 31.2501 31.25C31.2501 34.707 28.4571 37.5 25.0001 37.5ZM50.0001 25C46.543 25 43.7501 22.207 43.7501 18.75C43.7501 15.293 46.543 12.5 50.0001 12.5C53.4571 12.5 56.2501 15.293 56.2501 18.75C56.2501 22.207 53.4571 25 50.0001 25ZM75.0001 37.5C71.543 37.5 68.7501 34.707 68.7501 31.25C68.7501 27.793 71.543 25 75.0001 25C78.4571 25 81.2501 27.793 81.2501 31.25C81.2501 34.707 78.4571 37.5 75.0001 37.5Z" fill="#D67300"/>
</g>
<defs>
<clipPath id="clip0">
<rect width="100" height="100" fill="white"/>
</clipPath>
</defs>
</svg>
