<svg width="100" height="100" viewBox="0 0 25 25" fill="none" xmlns="http://www.w3.org/2000/svg">
<path d="M12.5 13.5729C13.5269 13.5729 14.3594 12.7404 14.3594 11.7135C14.3594 10.6866 13.5269 9.85413 12.5 9.85413C11.4731 9.85413 10.6406 10.6866 10.6406 11.7135C10.6406 12.7404 11.4731 13.5729 12.5 13.5729Z" fill="#2F89FC"/>
<path d="M7.29383 15.4104L6.88237 15.3052C3.82612 14.5333 2.073 13.2208 2.073 11.7093C2.073 10.1968 3.82716 8.88538 6.88237 8.11351L7.29383 8.00934L7.40946 8.41663C7.71835 9.48299 8.11412 10.5222 8.59279 11.5239L8.68133 11.7093L8.59279 11.8948C8.11362 12.8979 7.71675 13.9375 7.40946 15.0041L7.29383 15.4104V15.4104ZM6.69279 9.06143C4.37091 9.71559 2.94487 10.7135 2.94487 11.7093C2.94487 12.7031 4.36987 13.7021 6.69279 14.3552C6.97716 13.451 7.32091 12.5666 7.71883 11.7093C7.31803 10.8506 6.97525 9.966 6.69279 9.06143V9.06143ZM17.7053 15.4104L17.5907 15.0021C17.281 13.9355 16.8849 12.8959 16.4063 11.8937L16.3178 11.7093L16.4063 11.5229C16.8855 10.5218 17.2803 9.48122 17.5907 8.41455L17.7053 8.0083L18.1167 8.11247C21.174 8.88434 22.9261 10.1958 22.9261 11.7093C22.9261 13.2218 21.173 14.5333 18.1167 15.3052L17.7053 15.4104V15.4104ZM17.2782 11.7093C17.6949 12.6114 18.0417 13.4989 18.3063 14.3552C20.6292 13.7021 22.0553 12.7031 22.0553 11.7093C22.0553 10.7135 20.6303 9.71663 18.3063 9.06143C18.0222 9.96572 17.6788 10.8503 17.2782 11.7093V11.7093Z" fill="#2F89FC"/>
<path d="M6.68649 9.05731L6.57191 8.65106C5.71149 5.62189 5.97191 3.4521 7.28753 2.69585C8.57399 1.95106 10.6438 2.83127 12.8115 5.05523L13.1073 5.35939L12.8115 5.66252C12.0416 6.46323 11.3379 7.32509 10.7073 8.2396L10.5896 8.40835L10.3854 8.42502C9.27668 8.5121 8.17686 8.68942 7.09691 8.95523L6.68649 9.05731V9.05731ZM8.33441 3.29794C8.10108 3.29794 7.89482 3.34898 7.72087 3.44898C6.85837 3.94585 6.70628 5.67606 7.30003 8.01148C8.22816 7.80627 9.16462 7.65939 10.1084 7.5771C10.6547 6.80216 11.2508 6.06346 11.8927 5.36564C10.5354 4.04585 9.2542 3.29794 8.33441 3.29794V3.29794ZM16.6646 20.9896C15.4271 20.9896 13.8375 20.0563 12.1875 18.3625L11.8927 18.0594L12.1875 17.7573C12.9576 16.9553 13.6616 16.0924 14.2927 15.1771L14.4094 15.0104L14.6115 14.9906C15.7206 14.9051 16.8209 14.7285 17.9011 14.4625L18.3125 14.3584L18.4282 14.7656C19.2844 17.7927 19.025 19.9656 17.7115 20.7219C17.3926 20.9027 17.0312 20.9951 16.6646 20.9896V20.9896ZM13.1073 18.0521C14.4636 19.3719 15.7459 20.1209 16.6646 20.1209C16.899 20.1209 17.1052 20.0688 17.2782 19.9698C18.1417 19.4719 18.2948 17.7386 17.699 15.4031C16.7719 15.6094 15.8344 15.7573 14.8886 15.8396C14.3445 16.6158 13.7495 17.3549 13.1073 18.0521V18.0521Z" fill="#2F89FC"/>
<path d="M18.3125 9.0573L17.9011 8.95418C16.8209 8.68754 15.7207 8.51021 14.6115 8.42397L14.4094 8.40626L14.2927 8.23751C13.6625 7.32249 12.9584 6.46059 12.1875 5.66043L11.8927 5.3573L12.1875 5.05522C14.3542 2.8323 16.4229 1.95209 17.7115 2.69584C19.0261 3.45313 19.2875 5.62293 18.4281 8.65105L18.3125 9.0573ZM14.8886 7.57709C15.8823 7.66563 16.824 7.81459 17.699 8.01147C18.2938 5.67605 18.1417 3.94584 17.2781 3.44793C16.4198 2.95105 14.8042 3.71147 13.1073 5.36563C13.749 6.06355 14.3448 6.80105 14.8886 7.57709ZM8.3344 20.9896C7.96787 20.9948 7.60655 20.9024 7.28753 20.7219C5.9719 19.9656 5.71149 17.7938 6.57086 14.7656L6.68336 14.3583L7.09482 14.4625C8.09899 14.7156 9.20524 14.8938 10.3844 14.9906L10.5865 15.0104L10.7042 15.1771C11.3334 16.0917 12.0375 16.9552 12.8084 17.7573L13.1042 18.0594L12.8084 18.3625C11.1594 20.0573 9.56982 20.9896 8.3344 20.9896V20.9896ZM7.30003 15.4042C6.70628 17.7396 6.85836 19.4729 7.72086 19.9708C8.58024 20.4604 10.1907 19.7052 11.8927 18.0521C11.251 17.3541 10.655 16.6154 10.1084 15.8406C9.16367 15.7571 8.22552 15.6113 7.30003 15.4042V15.4042Z" fill="#2F89FC"/>
<path d="M12.5 15.951C11.7844 15.951 11.05 15.9208 10.3125 15.8594L10.1083 15.8417L9.99062 15.6729C9.57474 15.0749 9.18345 14.4601 8.81771 13.8302C8.45468 13.1986 8.11725 12.5526 7.80625 11.8937L7.71875 11.7094L7.80625 11.5229C8.11771 10.8646 8.45417 10.2187 8.81771 9.58749C9.17917 8.96666 9.57396 8.34583 9.99062 7.74374L10.1083 7.57708L10.3125 7.55833C11.7676 7.43645 13.2303 7.43645 14.6854 7.55833L14.8875 7.57812L15.0052 7.74478C15.8383 8.9414 16.57 10.2055 17.1927 11.5239L17.2792 11.7104L17.1927 11.8948C16.5718 13.2141 15.84 14.4784 15.0052 15.6739L14.8875 15.8427L14.6854 15.8604C13.95 15.9198 13.2146 15.951 12.5 15.951V15.951ZM10.5896 15.0094C11.876 15.1062 13.124 15.1062 14.4094 15.0094C15.127 13.9585 15.7649 12.8555 16.3177 11.7094C15.7668 10.5622 15.1288 9.45901 14.4094 8.40937C13.138 8.31145 11.861 8.31145 10.5896 8.40937C9.86952 9.45863 9.23151 10.5619 8.68125 11.7094C9.23529 12.8548 9.87313 13.9578 10.5896 15.0094V15.0094Z" fill="#2F89FC"/>
</svg>
