<svg width="70" height="70" viewBox="0 0 100 100" fill="none" xmlns="http://www.w3.org/2000/svg">
<path d="M98.4875 62.0906C91.8125 88.9 64.6781 105.175 37.9094 98.5031C11.1344 91.8781 -5.17501 64.6781 1.51249 37.9375C8.17187 11.1344 35.3219 -5.17502 62.075 1.49686C88.8656 8.18748 105.175 35.3062 98.4875 62.1094V62.0906ZM72.0375 42.8719C73.0281 36.2469 67.9656 32.6687 61.0344 30.2594L63.2844 21.2875L57.7969 19.9031L55.6187 28.6937C54.1844 28.3187 52.6906 27.9937 51.1906 27.6531L53.375 18.7812L47.8719 17.4156L45.625 26.4312L42.125 25.6031L34.575 23.7125L33.1094 29.5906C33.1094 29.5906 37.1812 30.5156 37.0812 30.5656C39.3156 31.1375 39.7187 32.5812 39.6562 33.7562L33.5031 58.4281C33.1937 59.1156 32.4937 60.125 30.95 59.7312C31 59.8094 26.9469 58.7406 26.9469 58.7406L24.1969 65.0187L31.325 66.7937L35.1969 67.8031L32.9344 76.9375L38.4375 78.2875L40.7 69.2531C42.1969 69.6781 43.6281 70.05 45.0594 70.3937L42.9469 79.3594L48.4469 80.7437L50.7094 71.6156C60.05 73.3875 67.0844 72.6875 70.0469 64.225C72.4219 57.4031 69.9125 53.4844 64.9844 50.9125C68.5312 50.0969 71.2344 47.7375 71.9812 42.8719H72.0375ZM59.4875 60.4656C57.8125 67.3 46.3375 63.5906 42.6125 62.6625L45.6219 50.5875C49.35 51.5469 61.2625 53.3844 59.4875 60.4656ZM61.2 42.7906C59.65 49.0062 50.1125 45.8656 47.0031 45.0812L49.7406 34.0812C52.8312 34.8281 62.8062 36.2594 61.2 42.7719V42.7906Z" fill="#D6A700"/>
</svg>
