<svg width="29" height="75" viewBox="0 0 29 75" fill="none" xmlns="http://www.w3.org/2000/svg">
<g clip-path="url(#clip0)">
<path d="M27.6123 4.46777L18.5303 14.9414L27.3926 56.6895C27.6855 57.4707 27.8809 58.02 27.9785 58.3374C28.0762 58.6548 28.0884 59.0088 28.0151 59.3994C27.9419 59.79 27.7344 60.1563 27.3926 60.498L15.9668 74.1943C15.4785 74.7314 14.856 75 14.0991 75C13.3423 75 12.6953 74.7314 12.1582 74.1943L0.805664 60.498C0.317383 59.8633 0.0854492 59.3384 0.109863 58.9233C0.134277 58.5083 0.366211 57.7637 0.805664 56.6895L9.66797 14.8682L0.65918 4.46777C0.0244141 3.88184 -0.134277 2.99072 0.183105 1.79443C0.500488 0.598144 1.19629 0 2.27051 0H26.0742C27.1484 0 27.8198 0.598144 28.0884 1.79443C28.3569 2.99072 28.1982 3.88184 27.6123 4.46777Z" fill="#2F89FC"/>
</g>
<defs>
<clipPath id="clip0">
<rect width="28.2715" height="75" fill="white"/>
</clipPath>
</defs>
</svg>
