<svg width="26" height="26" viewBox="0 0 26 26" fill="none" xmlns="http://www.w3.org/2000/svg">
<path d="M18.7543 1C16.2772 1 14.1605 2.78764 12.9976 4.02008C11.8347 2.78764 9.72282 1 7.24691 1C2.97936 1 0 4.01171 0 8.32286C0 13.0731 3.70027 16.1435 7.28 19.1133C8.97 20.5169 10.7191 21.9671 12.0605 23.5752C12.2862 23.8444 12.6171 24 12.9645 24H13.0331C13.3817 24 13.7115 23.8433 13.936 23.5752C15.2797 21.9671 17.0276 20.5157 18.7188 19.1133C22.2974 16.1447 26 13.0743 26 8.32286C26 4.01171 23.0206 1 18.7543 1V1Z" fill="#2F89FC"/>
</svg>
