<svg width="167" height="55" viewBox="0 0 167 55" fill="none" xmlns="http://www.w3.org/2000/svg">
<path d="M57.962 19.4H67.466V20.93H59.744V24.53H63.668C65.168 24.53 66.308 24.842 67.088 25.466C67.868 26.09 68.258 26.99 68.258 28.166C68.258 29.402 67.832 30.35 66.98 31.01C66.14 31.67 64.934 32 63.362 32H57.962V19.4ZM63.29 30.578C64.322 30.578 65.108 30.38 65.648 29.984C66.188 29.588 66.458 29.006 66.458 28.238C66.458 26.714 65.402 25.952 63.29 25.952H59.744V30.578H63.29ZM79.534 22.46V32H77.878V30.596C77.53 31.076 77.074 31.448 76.51 31.712C75.946 31.976 75.328 32.108 74.656 32.108C73.384 32.108 72.382 31.76 71.65 31.064C70.918 30.356 70.552 29.318 70.552 27.95V22.46H72.28V27.752C72.28 28.676 72.502 29.378 72.946 29.858C73.39 30.326 74.026 30.56 74.854 30.56C75.766 30.56 76.486 30.284 77.014 29.732C77.542 29.18 77.806 28.4 77.806 27.392V22.46H79.534ZM87.9064 27.032C88.5424 27.2 89.0344 27.47 89.3824 27.842C89.7304 28.214 89.9044 28.676 89.9044 29.228C89.9044 29.792 89.7124 30.296 89.3284 30.74C88.9444 31.172 88.4104 31.514 87.7264 31.766C87.0544 32.006 86.2984 32.126 85.4584 32.126C84.7504 32.126 84.0544 32.036 83.3704 31.856C82.6984 31.664 82.0984 31.394 81.5704 31.046L82.0924 29.732C82.5484 30.02 83.0704 30.248 83.6584 30.416C84.2464 30.572 84.8404 30.65 85.4404 30.65C86.2564 30.65 86.9044 30.512 87.3844 30.236C87.8764 29.948 88.1224 29.564 88.1224 29.084C88.1224 28.64 87.9244 28.298 87.5284 28.058C87.1444 27.818 86.5984 27.698 85.8904 27.698H84.1444V26.456H85.7644C86.4124 26.456 86.9224 26.342 87.2944 26.114C87.6664 25.886 87.8524 25.574 87.8524 25.178C87.8524 24.746 87.6304 24.41 87.1864 24.17C86.7544 23.93 86.1664 23.81 85.4224 23.81C84.4744 23.81 83.4724 24.056 82.4164 24.548L81.9484 23.216C83.1124 22.628 84.3304 22.334 85.6024 22.334C86.3704 22.334 87.0604 22.442 87.6724 22.658C88.2844 22.874 88.7644 23.18 89.1124 23.576C89.4604 23.972 89.6344 24.422 89.6344 24.926C89.6344 25.394 89.4784 25.814 89.1664 26.186C88.8544 26.558 88.4344 26.84 87.9064 27.032ZM92.5314 22.46H94.2594V26.51H99.6954V22.46H101.423V32H99.6954V28.004H94.2594V32H92.5314V22.46ZM109.049 30.596C110.189 30.596 111.107 30.212 111.803 29.444L112.739 30.56C112.319 31.064 111.785 31.448 111.137 31.712C110.501 31.976 109.787 32.108 108.995 32.108C107.987 32.108 107.093 31.904 106.313 31.496C105.533 31.076 104.927 30.494 104.495 29.75C104.075 29.006 103.865 28.166 103.865 27.23C103.865 26.306 104.069 25.472 104.477 24.728C104.897 23.984 105.467 23.408 106.187 23C106.919 22.58 107.741 22.37 108.653 22.37C109.517 22.37 110.303 22.568 111.011 22.964C111.719 23.348 112.283 23.894 112.703 24.602C113.123 25.31 113.339 26.126 113.351 27.05L105.773 28.526C106.013 29.186 106.415 29.696 106.979 30.056C107.555 30.416 108.245 30.596 109.049 30.596ZM108.653 23.828C108.053 23.828 107.513 23.966 107.033 24.242C106.565 24.518 106.199 24.908 105.935 25.412C105.671 25.904 105.539 26.48 105.539 27.14V27.32L111.641 26.168C111.485 25.472 111.137 24.908 110.597 24.476C110.057 24.044 109.409 23.828 108.653 23.828ZM119.963 32.108C118.991 32.108 118.121 31.898 117.353 31.478C116.597 31.058 116.003 30.482 115.571 29.75C115.139 29.006 114.923 28.166 114.923 27.23C114.923 26.294 115.139 25.46 115.571 24.728C116.003 23.984 116.597 23.408 117.353 23C118.121 22.58 118.991 22.37 119.963 22.37C120.827 22.37 121.595 22.544 122.267 22.892C122.951 23.24 123.479 23.744 123.851 24.404L122.537 25.25C122.237 24.794 121.865 24.452 121.421 24.224C120.977 23.996 120.485 23.882 119.945 23.882C119.321 23.882 118.757 24.02 118.253 24.296C117.761 24.572 117.371 24.968 117.083 25.484C116.807 25.988 116.669 26.57 116.669 27.23C116.669 27.902 116.807 28.496 117.083 29.012C117.371 29.516 117.761 29.906 118.253 30.182C118.757 30.458 119.321 30.596 119.945 30.596C120.485 30.596 120.977 30.482 121.421 30.254C121.865 30.026 122.237 29.684 122.537 29.228L123.851 30.056C123.479 30.716 122.951 31.226 122.267 31.586C121.595 31.934 120.827 32.108 119.963 32.108Z" fill="#515151"/>
<path d="M125.44 26.312H130.282V27.806H125.44V26.312ZM141.01 22.46V32H139.282V23.972H135.178L135.07 26.096C135.01 27.38 134.896 28.454 134.728 29.318C134.56 30.17 134.284 30.854 133.9 31.37C133.516 31.886 132.982 32.144 132.298 32.144C131.986 32.144 131.632 32.09 131.236 31.982L131.344 30.524C131.5 30.56 131.644 30.578 131.776 30.578C132.256 30.578 132.616 30.368 132.856 29.948C133.096 29.528 133.252 29.03 133.324 28.454C133.396 27.878 133.462 27.056 133.522 25.988L133.684 22.46H141.01ZM153.316 22.46V32H151.66V30.488C151.276 31.016 150.79 31.418 150.202 31.694C149.614 31.97 148.966 32.108 148.258 32.108C147.334 32.108 146.506 31.904 145.774 31.496C145.042 31.088 144.466 30.518 144.046 29.786C143.638 29.042 143.434 28.19 143.434 27.23C143.434 26.27 143.638 25.424 144.046 24.692C144.466 23.96 145.042 23.39 145.774 22.982C146.506 22.574 147.334 22.37 148.258 22.37C148.942 22.37 149.572 22.502 150.148 22.766C150.724 23.018 151.204 23.396 151.588 23.9V22.46H153.316ZM148.402 30.596C149.002 30.596 149.548 30.458 150.04 30.182C150.532 29.894 150.916 29.498 151.192 28.994C151.468 28.478 151.606 27.89 151.606 27.23C151.606 26.57 151.468 25.988 151.192 25.484C150.916 24.968 150.532 24.572 150.04 24.296C149.548 24.02 149.002 23.882 148.402 23.882C147.79 23.882 147.238 24.02 146.746 24.296C146.266 24.572 145.882 24.968 145.594 25.484C145.318 25.988 145.18 26.57 145.18 27.23C145.18 27.89 145.318 28.478 145.594 28.994C145.882 29.498 146.266 29.894 146.746 30.182C147.238 30.458 147.79 30.596 148.402 30.596ZM161.481 22.784C162.369 22.784 163.161 22.982 163.857 23.378C164.553 23.774 165.093 24.326 165.477 25.034C165.873 25.73 166.071 26.528 166.071 27.428C166.071 28.352 165.861 29.174 165.441 29.894C165.033 30.602 164.451 31.154 163.695 31.55C162.951 31.946 162.099 32.144 161.139 32.144C159.519 32.144 158.265 31.592 157.377 30.488C156.501 29.372 156.063 27.806 156.063 25.79C156.063 23.834 156.465 22.304 157.269 21.2C158.073 20.084 159.303 19.346 160.959 18.986L165.315 18.014L165.567 19.598L161.553 20.462C160.305 20.738 159.375 21.206 158.763 21.866C158.151 22.526 157.803 23.474 157.719 24.71C158.127 24.098 158.655 23.624 159.303 23.288C159.951 22.952 160.677 22.784 161.481 22.784ZM161.175 30.704C161.787 30.704 162.327 30.566 162.795 30.29C163.275 30.014 163.647 29.636 163.911 29.156C164.175 28.664 164.307 28.106 164.307 27.482C164.307 26.534 164.019 25.772 163.443 25.196C162.867 24.62 162.111 24.332 161.175 24.332C160.239 24.332 159.477 24.62 158.889 25.196C158.313 25.772 158.025 26.534 158.025 27.482C158.025 28.106 158.157 28.664 158.421 29.156C158.697 29.636 159.075 30.014 159.555 30.29C160.035 30.566 160.575 30.704 161.175 30.704Z" fill="#40514E"/>
<path d="M27.5 29.8604C29.7592 29.8604 31.5907 28.029 31.5907 25.7698C31.5907 23.5106 29.7592 21.6792 27.5 21.6792C25.2409 21.6792 23.4094 23.5106 23.4094 25.7698C23.4094 28.029 25.2409 29.8604 27.5 29.8604Z" fill="#2F89FC"/>
<path d="M16.0461 33.9029L15.1409 33.6715C8.41718 31.9733 4.5603 29.0858 4.5603 25.7606C4.5603 22.4331 8.41947 19.5479 15.1409 17.8498L16.0461 17.6206L16.3005 18.5167C16.9801 20.8627 17.8508 23.149 18.9038 25.3527L19.0986 25.7606L18.9038 26.1686C17.8497 28.3754 16.9766 30.6625 16.3005 33.0092L16.0461 33.9029ZM14.7238 19.9352C9.61572 21.3744 6.47843 23.5698 6.47843 25.7606C6.47843 27.9469 9.61343 30.1446 14.7238 31.5815C15.3495 29.5923 16.1057 27.6467 16.9811 25.7606C16.0994 23.8715 15.3453 21.9253 14.7238 19.9352ZM38.9513 33.9029L38.6993 33.0046C38.0179 30.6582 37.1465 28.3712 36.0936 26.1663L35.8988 25.7606L36.0936 25.3504C37.1478 23.1481 38.0163 20.8588 38.6993 18.5121L38.9513 17.6183L39.8565 17.8475C46.5826 19.5456 50.4372 22.4308 50.4372 25.7606C50.4372 29.0881 46.5803 31.9733 39.8565 33.6715L38.9513 33.9029ZM38.0118 25.7606C38.9284 27.7452 39.6915 29.6977 40.2736 31.5815C45.384 30.1446 48.5213 27.9469 48.5213 25.7606C48.5213 23.5698 45.3863 21.3767 40.2736 19.9352C39.6486 21.9247 38.893 23.8707 38.0118 25.7606Z" fill="#2F89FC"/>
<path d="M14.7103 19.926L14.4582 19.0323C12.5653 12.3681 13.1382 7.59457 16.0326 5.93082C18.8628 4.29228 23.4164 6.22874 28.1853 11.1214L28.8362 11.7906L28.1853 12.4575C26.4915 14.2191 24.9434 16.1151 23.5562 18.1271L23.2972 18.4983L22.848 18.535C20.4088 18.7266 17.9891 19.1167 15.6132 19.7014L14.7103 19.926ZM18.3357 7.2554C17.8224 7.2554 17.3687 7.3677 16.986 7.58769C15.0885 8.68082 14.7539 12.4873 16.0601 17.6252C18.102 17.1737 20.1622 16.8506 22.2385 16.6696C23.4405 14.9647 24.7518 13.3395 26.1641 11.8044C23.178 8.90082 20.3593 7.2554 18.3357 7.2554ZM36.6622 46.1771C33.9397 46.1771 30.4426 44.1237 26.8126 40.3975L26.1641 39.7306L26.8126 39.066C28.5067 37.3016 30.0556 35.4033 31.4441 33.3896L31.7007 33.0229L32.1453 32.9794C34.5855 32.7912 37.006 32.4026 39.3824 31.8175L40.2876 31.5883L40.542 32.4844C42.4257 39.1439 41.8551 43.9244 38.9653 45.5881C38.2637 45.9858 37.4686 46.1891 36.6622 46.1771ZM28.8362 39.7146C31.8199 42.6181 34.641 44.2658 36.6622 44.2658C37.1778 44.2658 37.6316 44.1512 38.012 43.9335C39.9118 42.8381 40.2487 39.0248 38.9378 33.8869C36.8982 34.3406 34.8357 34.666 32.7549 34.8471C31.558 36.5546 30.2489 38.1807 28.8362 39.7146Z" fill="#2F89FC"/>
<path d="M40.2874 19.926L39.3822 19.6992C37.0059 19.1126 34.5854 18.7224 32.1451 18.5327L31.7005 18.4937L31.4439 18.1225C30.0573 16.1095 28.5083 14.2133 26.8124 12.4529L26.1639 11.786L26.8124 11.1215C31.5791 6.23103 36.1303 4.29457 38.9651 5.93082C41.8572 7.59687 42.4324 12.3704 40.5418 19.0323L40.2874 19.926ZM32.7547 16.6696C34.941 16.8644 37.0126 17.1921 38.9376 17.6252C40.2462 12.4873 39.9116 8.68082 38.0118 7.58541C36.1235 6.49228 32.5691 8.1652 28.836 11.8044C30.2476 13.3398 31.5585 14.9623 32.7547 16.6696ZM18.3355 46.1771C17.5292 46.1886 16.7343 45.9853 16.0324 45.5881C13.138 43.9244 12.5651 39.1462 14.4557 32.4844L14.7032 31.5883L15.6085 31.8175C17.8176 32.3744 20.2514 32.7662 22.8455 32.9794L23.2901 33.0229L23.5491 33.3896C24.9332 35.4017 26.4824 37.3015 28.1782 39.066L28.8291 39.7306L28.1782 40.3975C24.5505 44.126 21.0535 46.1771 18.3355 46.1771ZM16.0599 33.8892C14.7537 39.0271 15.0882 42.8404 16.9857 43.9358C18.8764 45.0129 22.4193 43.3515 26.1639 39.7146C24.7521 38.1789 23.4408 36.5538 22.2382 34.8494C20.1599 34.6656 18.096 34.3448 16.0599 33.8892Z" fill="#2F89FC"/>
<path d="M27.5 35.0923C25.9256 35.0923 24.31 35.0258 22.6875 34.8906L22.2383 34.8517L21.9793 34.4804C21.0644 33.1648 20.2035 31.8123 19.3989 30.4264C18.6002 29.0369 17.8579 27.6156 17.1737 26.1662L16.9812 25.7606L17.1737 25.3504C17.8589 23.9021 18.5991 22.4812 19.3989 21.0925C20.1941 19.7267 21.0627 18.3608 21.9793 17.0362L22.2383 16.6696L22.6875 16.6283C25.8887 16.3602 29.1067 16.3602 32.3079 16.6283L32.7525 16.6719L33.0114 17.0385C34.8443 19.6711 36.454 22.4521 37.8239 25.3527L38.0141 25.7629L37.8239 26.1685C36.4578 29.0711 34.8479 31.8524 33.0114 34.4827L32.7525 34.8539L32.3079 34.8929C30.69 35.0235 29.072 35.0923 27.5 35.0923ZM23.297 33.0206C26.1272 33.2337 28.8727 33.2337 31.7006 33.0206C33.2793 30.7088 34.6826 28.282 35.8989 25.7606C34.6869 23.2369 33.2834 20.8098 31.7006 18.5006C28.9035 18.2852 26.0941 18.2852 23.297 18.5006C21.7129 20.809 20.3093 23.2362 19.0987 25.7606C20.3176 28.2806 21.7208 30.7072 23.297 33.0206Z" fill="#2F89FC"/>
</svg>
