<svg width="70" height="70" viewBox="0 0 100 100" fill="none" xmlns="http://www.w3.org/2000/svg">
<path d="M4.44706 87.5H57.3529C59.7853 87.5 61.7647 85.3969 61.7647 82.8125V23.4375C61.7647 23.3656 61.7353 23.3031 61.7265 23.2344C61.7183 23.1689 61.7055 23.1041 61.6882 23.0406C61.6306 22.7743 61.5067 22.5293 61.3294 22.3312L40.7441 0.459375C40.5109 0.225247 40.2128 0.0772967 39.8941 0.0375C39.8324 0.03125 39.7735 0 39.7059 0H4.42941C1.98824 0 0 2.10312 0 4.6875V82.8125C0 85.3969 1.99412 87.5 4.44706 87.5ZM41.1765 5.33438L56.7441 21.875H42.6471C42.257 21.875 41.883 21.7104 41.6072 21.4174C41.3314 21.1243 41.1765 20.7269 41.1765 20.3125V5.33438ZM2.94118 4.6875C2.94118 3.825 3.60882 3.125 4.42941 3.125H38.2353V20.3125C38.2353 22.8969 40.2147 25 42.6471 25H58.8235V82.8125C58.8235 83.2269 58.6686 83.6243 58.3928 83.9174C58.117 84.2104 57.743 84.375 57.3529 84.375H4.44706C4.25162 84.3775 4.05763 84.339 3.87618 84.2618C3.69472 84.1847 3.52936 84.0702 3.38952 83.9252C3.24968 83.7801 3.13811 83.6071 3.06119 83.4162C2.98426 83.2253 2.94348 83.0202 2.94118 82.8125V4.6875Z" fill="#A60063"/>
<path d="M13.2352 37.5H48.5294C48.9194 37.5 49.2934 37.3354 49.5692 37.0424C49.845 36.7493 49.9999 36.3519 49.9999 35.9375C49.9999 35.5231 49.845 35.1257 49.5692 34.8326C49.2934 34.5396 48.9194 34.375 48.5294 34.375H13.2352C12.8452 34.375 12.4712 34.5396 12.1954 34.8326C11.9196 35.1257 11.7646 35.5231 11.7646 35.9375C11.7646 36.3519 11.9196 36.7493 12.1954 37.0424C12.4712 37.3354 12.8452 37.5 13.2352 37.5V37.5Z" fill="#A60063"/>
<path d="M13.2352 50H48.5294C48.9194 50 49.2934 49.8354 49.5692 49.5424C49.845 49.2493 49.9999 48.8519 49.9999 48.4375C49.9999 48.0231 49.845 47.6257 49.5692 47.3326C49.2934 47.0396 48.9194 46.875 48.5294 46.875H13.2352C12.8452 46.875 12.4712 47.0396 12.1954 47.3326C11.9196 47.6257 11.7646 48.0231 11.7646 48.4375C11.7646 48.8519 11.9196 49.2493 12.1954 49.5424C12.4712 49.8354 12.8452 50 13.2352 50V50Z" fill="#A60063"/>
<path d="M13.2352 25H27.9411C28.3311 25 28.7052 24.8354 28.981 24.5424C29.2568 24.2493 29.4117 23.8519 29.4117 23.4375C29.4117 23.0231 29.2568 22.6257 28.981 22.3326C28.7052 22.0396 28.3311 21.875 27.9411 21.875H13.2352C12.8452 21.875 12.4712 22.0396 12.1954 22.3326C11.9196 22.6257 11.7646 23.0231 11.7646 23.4375C11.7646 23.8519 11.9196 24.2493 12.1954 24.5424C12.4712 24.8354 12.8452 25 13.2352 25V25Z" fill="#A60063"/>
<path d="M13.2352 62.5H48.5294C48.9194 62.5 49.2934 62.3354 49.5692 62.0424C49.845 61.7493 49.9999 61.3519 49.9999 60.9375C49.9999 60.5231 49.845 60.1257 49.5692 59.8326C49.2934 59.5396 48.9194 59.375 48.5294 59.375H13.2352C12.8452 59.375 12.4712 59.5396 12.1954 59.8326C11.9196 60.1257 11.7646 60.5231 11.7646 60.9375C11.7646 61.3519 11.9196 61.7493 12.1954 62.0424C12.4712 62.3354 12.8452 62.5 13.2352 62.5V62.5Z" fill="#A60063"/>
<path d="M13.2352 75H48.5294C48.9194 75 49.2934 74.8354 49.5692 74.5424C49.845 74.2493 49.9999 73.8519 49.9999 73.4375C49.9999 73.0231 49.845 72.6257 49.5692 72.3326C49.2934 72.0396 48.9194 71.875 48.5294 71.875H13.2352C12.8452 71.875 12.4712 72.0396 12.1954 72.3326C11.9196 72.6257 11.7646 73.0231 11.7646 73.4375C11.7646 73.8519 11.9196 74.2493 12.1954 74.5424C12.4712 74.8354 12.8452 75 13.2352 75V75Z" fill="#A60063"/>
<path d="M63.2354 15.625H76.4706V32.8125C76.4706 35.3969 78.4501 37.5 80.8824 37.5H97.0589V95.3125C97.0589 95.7269 96.9039 96.1243 96.6282 96.4174C96.3524 96.7104 95.9783 96.875 95.5883 96.875H42.6824C42.487 96.8775 42.293 96.839 42.1115 96.7618C41.9301 96.6847 41.7647 96.5702 41.6249 96.4252C41.485 96.2801 41.3735 96.1071 41.2965 95.9162C41.2196 95.7253 41.1788 95.5202 41.1765 95.3125V92.1875C41.1765 91.7731 41.0216 91.3757 40.7458 91.0826C40.47 90.7896 40.096 90.625 39.7059 90.625C39.3159 90.625 38.9419 90.7896 38.6661 91.0826C38.3903 91.3757 38.2354 91.7731 38.2354 92.1875V95.3125C38.2354 97.8969 40.2295 100 42.6824 100H95.5883C98.0206 100 100 97.8969 100 95.3125V35.9375C100 35.8656 99.9706 35.8031 99.9618 35.7344C99.9536 35.6689 99.9408 35.6041 99.9236 35.5406C99.866 35.2743 99.742 35.0293 99.5648 34.8312L78.9795 12.9594C78.7478 12.7233 78.4487 12.576 78.1295 12.5406C78.0677 12.5313 78.0089 12.5 77.9412 12.5H63.2354C62.8453 12.5 62.4713 12.6646 62.1955 12.9576C61.9197 13.2507 61.7648 13.6481 61.7648 14.0625C61.7648 14.4769 61.9197 14.8743 62.1955 15.1674C62.4713 15.4604 62.8453 15.625 63.2354 15.625ZM80.8824 34.375C80.4924 34.375 80.1183 34.2104 79.8425 33.9174C79.5668 33.6243 79.4118 33.2269 79.4118 32.8125V17.8344L94.9795 34.375H80.8824Z" fill="#A60063"/>
<path d="M69.1176 50H86.7646C87.1546 50 87.5287 49.8354 87.8045 49.5424C88.0803 49.2493 88.2352 48.8519 88.2352 48.4375C88.2352 48.0231 88.0803 47.6257 87.8045 47.3326C87.5287 47.0396 87.1546 46.875 86.7646 46.875H69.1176C68.7275 46.875 68.3535 47.0396 68.0777 47.3326C67.8019 47.6257 67.647 48.0231 67.647 48.4375C67.647 48.8519 67.8019 49.2493 68.0777 49.5424C68.3535 49.8354 68.7275 50 69.1176 50Z" fill="#A60063"/>
<path d="M69.1176 62.5H86.7646C87.1546 62.5 87.5287 62.3354 87.8045 62.0424C88.0803 61.7493 88.2352 61.3519 88.2352 60.9375C88.2352 60.5231 88.0803 60.1257 87.8045 59.8326C87.5287 59.5396 87.1546 59.375 86.7646 59.375H69.1176C68.7275 59.375 68.3535 59.5396 68.0777 59.8326C67.8019 60.1257 67.647 60.5231 67.647 60.9375C67.647 61.3519 67.8019 61.7493 68.0777 62.0424C68.3535 62.3354 68.7275 62.5 69.1176 62.5Z" fill="#A60063"/>
<path d="M69.1176 75H86.7646C87.1546 75 87.5287 74.8354 87.8045 74.5424C88.0803 74.2493 88.2352 73.8519 88.2352 73.4375C88.2352 73.0231 88.0803 72.6257 87.8045 72.3326C87.5287 72.0396 87.1546 71.875 86.7646 71.875H69.1176C68.7275 71.875 68.3535 72.0396 68.0777 72.3326C67.8019 72.6257 67.647 73.0231 67.647 73.4375C67.647 73.8519 67.8019 74.2493 68.0777 74.5424C68.3535 74.8354 68.7275 75 69.1176 75Z" fill="#A60063"/>
<path d="M69.1176 87.5H86.7646C87.1546 87.5 87.5287 87.3354 87.8045 87.0424C88.0803 86.7493 88.2352 86.3519 88.2352 85.9375C88.2352 85.5231 88.0803 85.1257 87.8045 84.8326C87.5287 84.5396 87.1546 84.375 86.7646 84.375H69.1176C68.7275 84.375 68.3535 84.5396 68.0777 84.8326C67.8019 85.1257 67.647 85.5231 67.647 85.9375C67.647 86.3519 67.8019 86.7493 68.0777 87.0424C68.3535 87.3354 68.7275 87.5 69.1176 87.5Z" fill="#A60063"/>
</svg>
