<svg width="75" height="75" viewBox="0 0 150 150" fill="none" xmlns="http://www.w3.org/2000/svg">
<path d="M84.375 93.75C69.3359 93.75 55.957 92.4316 44.2383 89.7949C32.5195 87.1582 24.8047 83.8379 21.0938 79.834C34.375 82.8613 49.2188 84.375 65.625 84.375C77.6367 84.375 89.0381 83.5449 99.8291 81.8848C110.62 80.2246 119.336 77.9297 125.977 75C132.617 72.0703 135.938 68.9453 135.938 65.625V56.25H140.625C143.457 56.8359 145.728 58.0322 147.437 59.8389C149.146 61.6455 150 63.5742 150 65.625V75C150 78.418 147.07 81.5674 141.211 84.4482C135.352 87.3291 127.393 89.5996 117.334 91.2598C107.275 92.9199 96.2891 93.75 84.375 93.75ZM75 56.25C65.5273 56.25 56.8359 55.7373 48.9258 54.7119C41.0156 53.6865 34.7168 52.4658 30.0293 51.0498C25.3418 49.6338 21.3623 48.1201 18.0908 46.5088C14.8193 44.8975 12.5488 43.5059 11.2793 42.334C10.0098 41.1621 9.375 40.332 9.375 39.8438V34.1309C14.3555 37.8418 22.9492 40.8936 35.1562 43.2861C47.3633 45.6787 60.6445 46.875 75 46.875C89.3555 46.875 102.637 45.6787 114.844 43.2861C127.051 40.8936 135.645 37.8418 140.625 34.1309V37.5C140.625 40.8203 137.695 43.9209 131.836 46.8018C125.977 49.6826 118.018 51.9775 107.959 53.6865C97.9004 55.3955 86.9141 56.25 75 56.25ZM75 37.5C63.0859 37.5 52.0996 36.6455 42.041 34.9365C31.9824 33.2275 24.0234 30.9326 18.1641 28.0518C12.3047 25.1709 9.375 22.0459 9.375 18.6768C9.375 15.3076 12.3047 12.1826 18.1641 9.30176C24.0234 6.4209 31.9824 4.15039 42.041 2.49023C52.0996 0.830078 63.0859 0 75 0C86.9141 0 97.9004 0.830078 107.959 2.49023C118.018 4.15039 125.977 6.4209 131.836 9.30176C137.695 12.1826 140.625 15.3076 140.625 18.6768C140.625 22.0459 137.695 25.1709 131.836 28.0518C125.977 30.9326 118.018 33.2275 107.959 34.9365C97.9004 36.6455 86.9141 37.5 75 37.5ZM4.6875 46.875C4.6875 50.1953 8.00781 53.3203 14.6484 56.25C21.2891 59.1797 30.0049 61.4746 40.7959 63.1348C51.5869 64.7949 62.9883 65.625 75 65.625C85.9375 65.625 96.3867 64.917 106.348 63.501C116.309 62.085 124.609 60.1562 131.25 57.7148C131.152 57.9102 130.981 58.2275 130.737 58.667C130.493 59.1064 129.736 59.9121 128.467 61.084C127.197 62.2559 125.659 63.3789 123.853 64.4531C122.046 65.5273 119.409 66.748 115.942 68.1152C112.476 69.4824 108.569 70.6299 104.224 71.5576C99.8779 72.4854 94.3359 73.291 87.5977 73.9746C80.8594 74.6582 73.5352 75 65.625 75C53.7109 75 42.7246 74.1455 32.666 72.4365C22.6074 70.7275 14.6484 68.4326 8.78906 65.5518C2.92969 62.6709 0 59.5703 0 56.25V46.875C0 44.5312 1.5625 42.2363 4.6875 39.9902V46.875ZM4.6875 96.2402V103.125C4.6875 106.445 8.00781 109.57 14.6484 112.5C21.2891 115.43 30.0049 117.725 40.7959 119.385C51.5869 121.045 62.9883 121.875 75 121.875C85.7422 121.875 96.0693 121.191 105.981 119.824C115.894 118.457 124.219 116.553 130.957 114.111C129.492 118.994 122.51 123.071 110.01 126.343C97.5098 129.614 82.7148 131.25 65.625 131.25C53.7109 131.25 42.7246 130.42 32.666 128.76C22.6074 127.1 14.6484 124.829 8.78906 121.948C2.92969 119.067 0 115.918 0 112.5V103.125C0 100.781 1.5625 98.4863 4.6875 96.2402ZM84.375 103.125C95.2148 103.125 105.591 102.417 115.503 101.001C125.415 99.585 133.691 97.6562 140.332 95.2148C138.965 100.098 132.031 104.199 119.531 107.52C107.031 110.84 92.1875 112.5 75 112.5C63.0859 112.5 52.0996 111.67 42.041 110.01C31.9824 108.35 24.0234 106.079 18.1641 103.198C12.3047 100.317 9.375 97.168 9.375 93.75V84.375C9.375 82.2266 10.791 80.0293 13.623 77.7832C15.0879 78.2715 16.3574 78.6621 17.4316 78.9551C15.5762 80.8105 14.6484 82.6172 14.6484 84.375C14.6484 87.6953 17.9199 90.8203 24.4629 93.75C31.0059 96.6797 39.6484 98.9746 50.3906 100.635C61.1328 102.295 72.4609 103.125 84.375 103.125ZM135.938 121.875V114.99C139.063 117.236 140.625 119.531 140.625 121.875V131.25C140.625 134.668 137.695 137.817 131.836 140.698C125.977 143.579 118.018 145.85 107.959 147.51C97.9004 149.17 86.9141 150 75 150C57.8125 150 42.9688 148.34 30.4688 145.02C17.9687 141.699 11.0352 137.598 9.66797 132.715C16.3086 135.156 24.585 137.085 34.4971 138.501C44.4092 139.917 54.7852 140.625 65.625 140.625C77.6367 140.625 89.0381 139.795 99.8291 138.135C110.62 136.475 119.336 134.18 125.977 131.25C132.617 128.32 135.938 125.195 135.938 121.875Z" fill="#D0C600"/>
</svg>
