<svg width="30" height="30" viewBox="0 0 30 30" fill="none" xmlns="http://www.w3.org/2000/svg">
<g clip-path="url(#clip0)">
<rect x="0.5" y="0.5" width="29" height="29" fill="white" stroke="#515151"/>
<path d="M15.016 11.9968C16.6906 11.9914 18.0243 10.6468 18.0183 8.96838C18.0116 7.28998 16.6756 5.95306 15.0004 5.95178C13.3111 5.95019 11.9621 7.31104 11.9752 9.00476C11.9876 10.6768 13.3364 12.0038 15.016 11.9968Z" fill="#515151"/>
<path d="M28.4043 0H1.59574C0.714574 0 0 0.714255 0 1.59574V28.4043C0 29.2857 0.714574 30 1.59574 30H28.4043C29.2857 30 30 29.2857 30 28.4043V1.59574C30 0.714255 29.2857 0 28.4043 0ZM15.0255 2.79766C18.4401 2.80628 21.1816 5.60011 21.1647 9.05362C21.1465 12.427 18.3603 15.1615 14.9512 15.15C11.5759 15.1385 8.80819 12.3405 8.82734 8.95979C8.84745 5.54202 11.617 2.78745 15.0255 2.79766ZM21.9424 17.5762C21.1873 18.352 20.2784 18.9124 19.2686 19.3047C18.314 19.6736 17.2682 19.8606 16.2329 19.9845C16.3893 20.1549 16.463 20.2376 16.56 20.3362C17.9655 21.7484 19.3768 23.1549 20.7776 24.5713C21.2544 25.0535 21.3552 25.6519 21.0919 26.2133C20.8044 26.8277 20.1613 27.2307 19.53 27.1873C19.1304 27.1593 18.8189 26.9604 18.5426 26.6824C17.4817 25.6149 16.4007 24.5674 15.3622 23.4811C15.06 23.1645 14.9145 23.2235 14.647 23.4989C13.5801 24.5974 12.4966 25.679 11.4061 26.7543C10.9162 27.2374 10.3337 27.3239 9.76468 27.0485C9.16085 26.7559 8.77723 26.1396 8.80691 25.5195C8.82734 25.1007 9.03351 24.781 9.32106 24.4937C10.7113 23.1051 12.0983 21.713 13.486 20.3218C13.5782 20.2299 13.6637 20.1313 13.7974 19.9883C11.9052 19.7907 10.199 19.3254 8.73894 18.1829C8.55798 18.0409 8.37064 17.9036 8.20468 17.7447C7.56574 17.1306 7.5016 16.4282 8.00745 15.7034C8.43957 15.0836 9.1666 14.917 9.92138 15.2729C10.0679 15.3415 10.207 15.428 10.3404 15.5202C13.0621 17.3904 16.8016 17.4424 19.5338 15.6051C19.8042 15.3986 20.0936 15.2276 20.4294 15.1427C21.082 14.9751 21.689 15.2141 22.0395 15.7848C22.4406 16.4349 22.4352 17.0706 21.9424 17.5762Z" fill="#515151"/>
</g>
<defs>
<clipPath id="clip0">
<rect width="30" height="30" fill="white"/>
</clipPath>
</defs>
</svg>
