<svg width="20" height="20" viewBox="0 0 20 20" fill="none" xmlns="http://www.w3.org/2000/svg">
<path fill-rule="evenodd" clip-rule="evenodd" d="M2.83369 1.22503C3.03869 1.02 3.28494 0.860914 3.55611 0.758311C3.82728 0.655709 4.11717 0.61194 4.40654 0.629907C4.69592 0.647875 4.97816 0.727169 5.23455 0.862528C5.49095 0.997888 5.71563 1.18622 5.89369 1.41503L7.99494 4.11753C8.38119 4.61253 8.51744 5.25878 8.36494 5.86753L7.72369 8.43378C7.69034 8.56694 7.69204 8.70646 7.72862 8.83877C7.76521 8.97108 7.83542 9.09166 7.93244 9.18878L10.8124 12.0675C10.9096 12.1645 11.0301 12.2348 11.1624 12.2713C11.2948 12.3079 11.4343 12.3096 11.5674 12.2763L14.1324 11.635C14.4333 11.5599 14.7473 11.5542 15.0507 11.6183C15.3541 11.6824 15.6389 11.8146 15.8837 12.005L18.5862 14.1063C19.5574 14.8613 19.6474 16.2975 18.7774 17.1663L17.5649 18.3788C16.6987 19.245 15.4024 19.6263 14.1937 19.2013C11.1017 18.113 8.29438 16.3425 5.97994 14.0213C3.65824 11.707 1.88737 8.89963 0.798691 5.80753C0.373691 4.59878 0.754942 3.30253 1.62119 2.43503L2.83369 1.22378V1.22503Z" fill="#2F89FC"/>
</svg>
