<svg width="75" height="75" viewBox="0 0 75 75" fill="none" xmlns="http://www.w3.org/2000/svg">
<path d="M56.25 30.4688H51.5625C51.5606 28.6045 50.8193 26.8172 49.501 25.499C48.1828 24.1807 46.3955 23.4394 44.5312 23.4375V18.75C47.6381 18.7537 50.6167 19.9896 52.8135 22.1865C55.0104 24.3833 56.2463 27.3619 56.25 30.4688V30.4688Z" fill="#40514E"/>
<path d="M65.625 30.4688H60.9375C60.9325 26.1191 59.2024 21.949 56.1267 18.8733C53.051 15.7976 48.8809 14.0675 44.5312 14.0625V9.375C50.1238 9.3812 55.4854 11.6056 59.4399 15.5601C63.3944 19.5146 65.6188 24.8762 65.625 30.4688V30.4688Z" fill="#40514E"/>
<path d="M47.6554 50.3485L52.9054 45.0985C53.6082 44.3955 54.5017 43.9143 55.4753 43.7143C56.449 43.5143 57.4599 43.6044 58.3828 43.9735L64.7765 46.5328C65.7189 46.9099 66.5267 47.5607 67.0957 48.4012C67.6647 49.2417 67.9687 50.2334 67.9687 51.2485V62.8758C67.9704 63.5669 67.8309 64.251 67.559 64.8864C67.2871 65.5217 66.8884 66.0949 66.3872 66.5707C65.8861 67.0466 65.2931 67.4152 64.6446 67.654C63.9961 67.8928 63.3057 67.9967 62.6156 67.9594C17.7984 65.1703 8.74683 27.211 7.06636 12.675C6.98497 11.9644 7.05495 11.2446 7.2717 10.5629C7.48846 9.88127 7.84707 9.25324 8.32395 8.72012C8.80083 8.18701 9.38517 7.76089 10.0385 7.46981C10.6919 7.17873 11.3995 7.02927 12.1148 7.03127H23.5359C24.5509 7.03124 25.5426 7.33533 26.3832 7.90432C27.2237 8.4733 27.8745 9.28108 28.2515 10.2235L30.8086 16.6172C31.1776 17.5401 31.2677 18.551 31.0677 19.5246C30.8677 20.4983 30.3865 21.3918 29.6835 22.0946L24.4335 27.3446C24.4335 27.3446 27.3445 47.8102 47.6554 50.3485Z" fill="#40514E"/>
</svg>
