<svg width="70" height="70" viewBox="0 0 100 100" fill="none" xmlns="http://www.w3.org/2000/svg">
<path d="M50.925 67.6063C50.925 68.0738 51.2863 68.4563 51.7219 68.4563H71.3781C71.8138 68.4563 72.175 68.0738 72.175 67.6063V62.5063C72.175 62.0388 71.8138 61.6563 71.3781 61.6563H51.7219C51.2863 61.6563 50.925 62.0388 50.925 62.5063V67.6063ZM30.2169 68.2544L50.6169 51.1481C51.0206 50.8081 51.0206 50.1812 50.6169 49.8412L30.2169 32.7456C30.0937 32.6409 29.9431 32.5737 29.7829 32.552C29.6227 32.5304 29.4597 32.5551 29.3131 32.6234C29.1666 32.6916 29.0427 32.8005 28.9561 32.937C28.8696 33.0736 28.8241 33.2321 28.825 33.3938V40.0556C28.825 40.3106 28.9312 40.5444 29.1331 40.7037L40.7994 50.5L29.1331 60.2963C29.0382 60.3758 28.9615 60.4748 28.9083 60.5867C28.8551 60.6985 28.8267 60.8205 28.825 60.9444V67.6063C28.825 68.3288 29.6644 68.7219 30.2169 68.2544ZM89.6 8H11.4C9.51937 8 8 9.51937 8 11.4V89.6C8 91.4806 9.51937 93 11.4 93H89.6C91.4806 93 93 91.4806 93 89.6V11.4C93 9.51937 91.4806 8 89.6 8ZM85.35 85.35H15.65V15.65H85.35V85.35Z" fill="#A60063"/>
</svg>
