<svg width="70" height="70" viewBox="0 0 100 100" fill="none" xmlns="http://www.w3.org/2000/svg">
<path d="M95.8984 62.5H91.2109L87.8906 24.2188C87.7604 20.9635 86.4909 18.1966 84.082 15.918C81.6732 13.6393 78.9062 12.5 75.7812 12.5H54.1016V4.10156C54.1016 1.36719 52.7344 0 50 0C47.2656 0 45.8984 1.36719 45.8984 4.10156V12.5H24.2188C21.0938 12.5 18.3268 13.6393 15.918 15.918C13.5091 18.1966 12.2396 20.9635 12.1094 24.2188L8.78906 62.5H4.10156C2.92969 62.5 1.95312 62.8906 1.17188 63.6719C0.390625 64.4531 0 65.4297 0 66.6016C0 67.9036 0.390625 68.9453 1.17188 69.7266C1.95312 70.5078 2.92969 70.8984 4.10156 70.8984H19.5312L12.5 94.5312C12.1094 95.5729 12.2396 96.6146 12.8906 97.6562C13.5417 98.6979 14.388 99.349 15.4297 99.6094H16.6016C18.2943 99.6094 19.7266 98.6328 20.8984 96.6797L28.3203 70.8984H45.8984V87.5C45.8984 90.2344 47.2656 91.6016 50 91.6016C52.7344 91.6016 54.1016 90.2344 54.1016 87.5V70.8984H71.6797L79.1016 97.0703C79.4922 99.0234 80.9245 100 83.3984 100H84.5703C87.0443 99.0885 88.0208 97.3958 87.5 94.9219L80.4688 70.8984H95.8984C97.0703 70.8984 98.0469 70.5078 98.8281 69.7266C99.6094 68.9453 100 67.9036 100 66.6016C100 65.4297 99.6094 64.4531 98.8281 63.6719C98.0469 62.8906 97.0703 62.5 95.8984 62.5ZM16.9922 62.5L20.5078 24.6094C20.5078 23.5677 20.931 22.6888 21.7773 21.9727C22.6237 21.2565 23.5677 20.8984 24.6094 20.8984H75.7812C76.9531 20.8984 77.9622 21.2565 78.8086 21.9727C79.6549 22.6888 80.0781 23.5677 80.0781 24.6094L83.3984 62.5H16.9922ZM63.2812 26.7578C56.901 35.2214 53.4505 39.7786 52.9297 40.4297C48.3724 37.3047 45.3125 35.2214 43.75 34.1797L40.8203 31.6406L25.7812 51.7578C25.1302 52.5391 24.9023 53.5482 25.0977 54.7852C25.293 56.0221 25.8464 56.901 26.7578 57.4219C27.6693 58.0729 28.4505 58.3984 29.1016 58.3984C30.6641 58.3984 31.7708 57.8125 32.4219 56.6406L42.5781 43.3594C47.526 46.7448 50.6185 48.763 51.8555 49.4141C53.0924 50.0651 54.1667 50.2604 55.0781 50L56.6406 49.6094L57.4219 48.2422C57.8125 47.7214 58.6914 46.582 60.0586 44.8242C61.4258 43.0664 63.0859 40.8203 65.0391 38.0859C66.9922 35.3516 68.4896 33.3333 69.5312 32.0312C70.1823 31.25 70.4427 30.2409 70.3125 29.0039C70.1823 27.7669 69.6615 26.8229 68.75 26.1719C68.099 25.3906 67.1875 25.0651 66.0156 25.1953C64.8438 25.3255 63.9323 25.8464 63.2812 26.7578Z" fill="#00AC4F"/>
</svg>
