<svg width="25" height="25" viewBox="0 0 24 24" fill="none" xmlns="http://www.w3.org/2000/svg">
<path d="M3.67896 22.8754C3.88386 22.9679 4.11393 23.0103 4.34446 22.9979C4.57499 22.9855 4.79728 22.9188 4.98746 22.805L21.4547 12.9045C21.6229 12.8032 21.7604 12.6681 21.8554 12.5106C21.9504 12.3531 22 12.178 22 12.0002C22 11.8224 21.9504 11.6473 21.8554 11.4898C21.7604 11.3323 21.6229 11.1972 21.4547 11.096L4.98746 1.19544C4.79743 1.08125 4.57504 1.01438 4.34437 1.00207C4.11371 0.989765 3.88357 1.03249 3.67887 1.12563C3.47416 1.21876 3.3027 1.35876 3.18304 1.53045C3.06337 1.70214 3.00008 1.89899 3 2.09969V21.9007C2.99996 22.1015 3.06321 22.2985 3.1829 22.4703C3.30258 22.6421 3.47413 22.7822 3.67896 22.8754Z" fill="#2F89FC"/>
</svg>
