<svg width="50" height="50" viewBox="0 0 50 50" fill="none" xmlns="http://www.w3.org/2000/svg">
<path d="M41.9188 37.2852C40.9977 35.1034 39.6611 33.1216 37.9833 31.4502C36.3106 29.774 34.3291 28.4375 32.1483 27.5146C32.1288 27.5049 32.1093 27.5 32.0897 27.4902C35.1317 25.293 37.1093 21.7139 37.1093 17.6758C37.1093 10.9863 31.6893 5.56641 24.9999 5.56641C18.3104 5.56641 12.8905 10.9863 12.8905 17.6758C12.8905 21.7139 14.868 25.293 17.91 27.4951C17.8905 27.5049 17.871 27.5098 17.8514 27.5195C15.6639 28.4424 13.7011 29.7656 12.0165 31.4551C10.3403 33.1278 9.00381 35.1092 8.08093 37.29C7.1743 39.4251 6.68534 41.7141 6.6405 44.0332C6.6392 44.0853 6.64834 44.1372 6.66739 44.1857C6.68643 44.2342 6.715 44.2784 6.7514 44.3158C6.78781 44.3531 6.83131 44.3827 6.87935 44.403C6.92739 44.4232 6.979 44.4336 7.03113 44.4336H9.96082C10.1757 44.4336 10.3466 44.2627 10.3514 44.0527C10.4491 40.2832 11.9628 36.7529 14.6385 34.0771C17.4071 31.3086 21.0839 29.7852 24.9999 29.7852C28.9159 29.7852 32.5927 31.3086 35.3612 34.0771C38.037 36.7529 39.5507 40.2832 39.6483 44.0527C39.6532 44.2676 39.8241 44.4336 40.0389 44.4336H42.9686C43.0208 44.4336 43.0724 44.4232 43.1204 44.403C43.1684 44.3827 43.2119 44.3531 43.2484 44.3158C43.2848 44.2784 43.3133 44.2342 43.3324 44.1857C43.3514 44.1372 43.3606 44.0853 43.3593 44.0332C43.3104 41.6992 42.827 39.4287 41.9188 37.2852V37.2852ZM24.9999 26.0742C22.7587 26.0742 20.6493 25.2002 19.0624 23.6133C17.4755 22.0264 16.6014 19.917 16.6014 17.6758C16.6014 15.4346 17.4755 13.3252 19.0624 11.7383C20.6493 10.1514 22.7587 9.27734 24.9999 9.27734C27.2411 9.27734 29.3505 10.1514 30.9374 11.7383C32.5243 13.3252 33.3983 15.4346 33.3983 17.6758C33.3983 19.917 32.5243 22.0264 30.9374 23.6133C29.3505 25.2002 27.2411 26.0742 24.9999 26.0742Z" fill="black"/>
</svg>
