<svg width="20" height="20" viewBox="0 0 20 20" fill="none" xmlns="http://www.w3.org/2000/svg">
<g clip-path="url(#clip0)">
<path d="M10 18C12.1217 18 14.1566 17.1571 15.6569 15.6569C17.1571 14.1566 18 12.1217 18 10C18 7.87827 17.1571 5.84344 15.6569 4.34315C14.1566 2.84285 12.1217 2 10 2C7.87827 2 5.84344 2.84285 4.34315 4.34315C2.84285 5.84344 2 7.87827 2 10C2 12.1217 2.84285 14.1566 4.34315 15.6569C5.84344 17.1571 7.87827 18 10 18ZM10 20C4.477 20 0 15.523 0 10C0 4.477 4.477 0 10 0C15.523 0 20 4.477 20 10C20 15.523 15.523 20 10 20Z" fill="#515151"/>
<path d="M13.0374 9.50469C13.0474 8.26135 12.0216 7.12135 10.7507 6.96385L10.6674 6.95135C10.6037 6.9387 10.539 6.93145 10.4741 6.92969C10.2132 6.92969 10.1441 7.11802 10.1257 7.23052C10.1153 7.27724 10.1144 7.32557 10.123 7.37266C10.1316 7.41975 10.1495 7.46464 10.1757 7.50469C10.2624 7.62552 10.4141 7.64635 10.5357 7.66469C10.5716 7.66969 10.6057 7.67385 10.6332 7.68135C11.7757 7.94385 12.1607 8.35802 12.3482 9.52719C12.3532 9.55635 12.3549 9.59135 12.3566 9.62885C12.3649 9.76802 12.3824 10.0589 12.6857 10.0589C12.7107 10.0589 12.7374 10.0572 12.7657 10.0522C13.0482 10.008 13.0391 9.74219 13.0349 9.61469C13.0328 9.58389 13.0328 9.55298 13.0349 9.52219C13.0358 9.51667 13.0364 9.51111 13.0366 9.50552L13.0374 9.50469Z" fill="#515151"/>
<path d="M10.3573 6.5549C10.3907 6.5574 10.424 6.5599 10.4498 6.56406C12.3248 6.8624 13.1882 7.77906 13.4273 9.73073C13.4315 9.76406 13.4315 9.80406 13.4323 9.8474C13.4348 9.9999 13.4398 10.3166 13.7698 10.3232H13.7798C13.8251 10.3256 13.8704 10.3183 13.9127 10.3018C13.955 10.2853 13.9932 10.2599 14.0248 10.2274C14.1273 10.1166 14.1207 9.9524 14.1148 9.81906C14.1132 9.7874 14.1115 9.75656 14.1123 9.7299C14.1357 7.73406 12.4623 5.92406 10.5307 5.8574L10.5073 5.85823C10.4999 5.85933 10.4924 5.85988 10.4848 5.8599C10.4657 5.8599 10.4415 5.85823 10.4165 5.85656C10.3833 5.85352 10.3499 5.85186 10.3165 5.85156C10.009 5.85156 9.95067 6.07656 9.94317 6.21156C9.92651 6.5224 10.2173 6.5449 10.3573 6.5549ZM13.3365 12.2524C13.2964 12.221 13.2567 12.189 13.2173 12.1566C13.0123 11.9866 12.794 11.8299 12.584 11.6782C12.5401 11.6466 12.4962 11.615 12.4523 11.5832C12.1823 11.3882 11.9398 11.2924 11.7107 11.2924C11.4023 11.2924 11.1332 11.4691 10.9107 11.8166C10.8123 11.9699 10.6923 12.0449 10.5457 12.0449C10.4433 12.0412 10.3429 12.0154 10.2515 11.9691C9.38067 11.5607 8.75817 10.9357 8.40234 10.1107C8.23067 9.71073 8.28567 9.45073 8.58901 9.23823C8.76067 9.11823 9.08067 8.89406 9.05817 8.4649C9.03317 7.9774 7.99067 6.51073 7.55151 6.34406C7.36417 6.27336 7.15758 6.27277 6.96984 6.3424C6.46567 6.5174 6.10317 6.82573 5.92234 7.23156C5.74734 7.6249 5.75567 8.08573 5.94567 8.56573C6.49317 9.95406 7.26234 11.1641 8.23401 12.1624C9.18401 13.1399 10.3523 13.9399 11.7057 14.5416C11.8273 14.5957 11.9557 14.6249 12.049 14.6466L12.1282 14.6666C12.139 14.6697 12.1502 14.6714 12.1615 14.6716H12.1723C12.809 14.6716 13.5732 14.0716 13.8082 13.3866C14.014 12.7866 13.6382 12.4899 13.3365 12.2524ZM10.639 8.14073C10.5307 8.14323 10.3032 8.14906 10.2232 8.3874C10.1865 8.49906 10.1907 8.59573 10.2365 8.6749C10.304 8.79156 10.434 8.8274 10.5515 8.84656C10.9782 8.9174 11.1982 9.16156 11.2415 9.61323C11.2623 9.8249 11.3998 9.97156 11.5765 9.97156C11.5899 9.97184 11.6032 9.97129 11.6165 9.9699C11.829 9.94323 11.9315 9.7824 11.9223 9.49073C11.9257 9.18573 11.7715 8.84073 11.509 8.56573C11.2457 8.28906 10.9282 8.13323 10.639 8.14073Z" fill="#515151"/>
</g>
<defs>
<clipPath id="clip0">
<rect width="20" height="20" fill="white"/>
</clipPath>
</defs>
</svg>
