<svg width="64" height="64" viewBox="0 0 64 64" fill="none" xmlns="http://www.w3.org/2000/svg">
<circle cx="32" cy="32" r="32" fill="white"/>
<path d="M48.9188 44.2852C47.9977 42.1034 46.6611 40.1216 44.9833 38.4502C43.3106 36.774 41.3291 35.4375 39.1483 34.5146C39.1288 34.5049 39.1093 34.5 39.0897 34.4902C42.1317 32.293 44.1093 28.7139 44.1093 24.6758C44.1093 17.9863 38.6893 12.5664 31.9999 12.5664C25.3104 12.5664 19.8905 17.9863 19.8905 24.6758C19.8905 28.7139 21.868 32.293 24.91 34.4951C24.8905 34.5049 24.871 34.5098 24.8514 34.5195C22.6639 35.4424 20.7011 36.7656 19.0165 38.4551C17.3403 40.1278 16.0038 42.1092 15.0809 44.29C14.1743 46.4251 13.6853 48.7141 13.6405 51.0332C13.6392 51.0853 13.6483 51.1372 13.6674 51.1857C13.6864 51.2342 13.715 51.2784 13.7514 51.3158C13.7878 51.3531 13.8313 51.3827 13.8794 51.403C13.9274 51.4232 13.979 51.4336 14.0311 51.4336H16.9608C17.1757 51.4336 17.3466 51.2627 17.3514 51.0527C17.4491 47.2832 18.9628 43.7529 21.6385 41.0771C24.4071 38.3086 28.0839 36.7852 31.9999 36.7852C35.9159 36.7852 39.5927 38.3086 42.3612 41.0771C45.037 43.7529 46.5507 47.2832 46.6483 51.0527C46.6532 51.2676 46.8241 51.4336 47.0389 51.4336H49.9686C50.0208 51.4336 50.0724 51.4232 50.1204 51.403C50.1684 51.3827 50.2119 51.3531 50.2484 51.3158C50.2848 51.2784 50.3133 51.2342 50.3324 51.1857C50.3514 51.1372 50.3606 51.0853 50.3593 51.0332C50.3104 48.6992 49.827 46.4287 48.9188 44.2852V44.2852ZM31.9999 33.0742C29.7587 33.0742 27.6493 32.2002 26.0624 30.6133C24.4755 29.0264 23.6014 26.917 23.6014 24.6758C23.6014 22.4346 24.4755 20.3252 26.0624 18.7383C27.6493 17.1514 29.7587 16.2773 31.9999 16.2773C34.2411 16.2773 36.3505 17.1514 37.9374 18.7383C39.5243 20.3252 40.3983 22.4346 40.3983 24.6758C40.3983 26.917 39.5243 29.0264 37.9374 30.6133C36.3505 32.2002 34.2411 33.0742 31.9999 33.0742Z" fill="#A4A4A4"/>
</svg>
